<?xml version="1.0" standalone="no"?>
<!DOCTYPE svg PUBLIC "-//W3C//DTD SVG 20010904//EN"
 "http://www.w3.org/TR/2001/REC-SVG-20010904/DTD/svg10.dtd">
<svg version="1.0" xmlns="http://www.w3.org/2000/svg"
 width="800.000000pt" height="450.000000pt" viewBox="0 0 800.000000 450.000000"
 preserveAspectRatio="xMidYMid meet">

<g transform="translate(0.000000,450.000000) scale(0.100000,-0.100000)"
fill="#000000" stroke="none">
<path d="M3101 3539 c-190 -25 -321 -115 -395 -273 -53 -112 -55 -222 -5 -302
46 -76 163 -147 293 -178 94 -23 126 -41 126 -71 0 -43 -43 -65 -127 -65 -91
0 -175 27 -257 81 -32 22 -60 38 -61 37 -1 -2 -12 -21 -25 -43 -13 -22 -48
-79 -78 -128 -31 -50 -52 -94 -48 -103 7 -19 172 -98 261 -125 90 -27 302 -37
384 -19 120 27 246 107 323 206 23 29 43 52 45 50 1 -1 -6 -56 -17 -122 -11
-65 -20 -125 -20 -131 0 -10 45 -13 194 -13 l195 0 7 48 c76 512 76 511 118
397 13 -33 55 -149 95 -257 l73 -198 394 0 c307 0 396 3 399 13 2 6 16 120 30
252 14 132 27 254 30 270 3 18 97 156 238 350 l234 320 -191 3 c-105 1 -196 0
-202 -2 -7 -3 -51 -68 -99 -145 -57 -92 -93 -141 -104 -141 -13 0 -23 20 -40
78 -12 42 -31 107 -42 145 l-20 67 -205 0 c-192 0 -206 -1 -199 -17 17 -44
105 -276 105 -278 0 -2 -86 -5 -191 -7 l-191 -3 -40 -44 c-22 -26 -42 -41 -47
-35 -5 5 4 88 20 189 16 99 29 183 29 188 0 4 -89 7 -198 7 l-198 0 -52 -317
c-29 -175 -52 -326 -52 -335 0 -30 -16 -20 -35 22 -19 43 -75 99 -122 123 -15
8 -77 29 -136 46 -164 48 -197 66 -197 106 0 40 35 59 115 63 83 5 164 -15
234 -55 42 -24 44 -25 55 -7 56 91 134 240 128 245 -4 4 -47 23 -97 42 -146
58 -311 83 -434 66z m1482 -484 l57 -150 -20 -225 c-10 -124 -20 -244 -22
-268 -1 -24 -5 -45 -8 -47 -4 -2 -64 137 -134 309 l-128 314 92 116 c51 65 96
114 100 109 4 -4 32 -75 63 -158z"/>
<path d="M4260 3413 c-47 -64 -86 -120 -88 -125 -2 -4 60 -8 138 -8 110 0 141
3 137 13 -2 6 -24 63 -48 125 -24 61 -46 112 -49 112 -3 0 -43 -53 -90 -117z"/>
<path d="M2290 2214 c-134 -29 -260 -115 -309 -213 -12 -22 -18 -41 -14 -41 5
-1 96 -1 203 -1 176 0 196 2 210 19 32 38 54 46 134 52 l81 5 12 75 c21 133
33 120 -119 119 -74 0 -162 -7 -198 -15z"/>
<path d="M2696 2158 c-9 -28 -27 -191 -22 -195 10 -11 390 -2 397 9 4 5 9 39
13 74 4 36 9 78 13 94 l6 30 -202 0 c-153 0 -203 -3 -205 -12z"/>
<path d="M3200 2168 c0 -2 -7 -48 -15 -103 -7 -55 -12 -102 -9 -104 2 -3 69
-4 147 -3 78 2 148 -2 156 -7 12 -8 12 -25 2 -113 -6 -56 -14 -118 -18 -135
-5 -33 -5 -33 36 -33 30 0 43 5 51 21 15 27 69 59 102 59 29 0 88 -44 88 -66
0 -12 40 -14 236 -14 l237 0 -7 32 c-10 50 -54 116 -98 149 -66 47 -156 71
-293 76 -89 4 -135 1 -180 -11 -32 -8 -61 -13 -64 -11 -2 3 3 58 12 122 10 65
17 124 17 131 0 9 -47 12 -200 12 -110 0 -200 -1 -200 -2z"/>
<path d="M4723 1919 c-87 -13 -189 -49 -255 -92 -51 -33 -138 -126 -138 -148
0 -5 98 -9 229 -9 l229 0 40 40 c34 34 46 40 81 40 44 0 91 -33 91 -65 0 -13
29 -15 231 -15 l230 0 -6 23 c-35 115 -143 192 -315 223 -83 15 -320 16 -417
3z"/>
<path d="M5606 1921 c-6 -10 -36 -201 -36 -231 0 -19 6 -20 208 -20 201 0 210
1 228 21 10 12 39 31 63 42 39 17 57 18 156 12 l112 -7 7 59 c4 32 9 75 13 96
l6 37 -120 0 c-73 0 -141 -6 -176 -15 -32 -8 -60 -15 -62 -15 -3 0 -5 7 -5 15
0 13 -28 15 -194 15 -107 0 -197 -4 -200 -9z"/>
<path d="M1736 1908 c-3 -7 -7 -28 -10 -46 l-6 -32 403 2 402 3 3 43 3 42
-396 0 c-308 0 -396 -3 -399 -12z"/>
<path d="M2667 1913 c-3 -5 -8 -25 -12 -46 l-7 -37 200 0 c111 0 203 3 205 8
3 4 7 23 9 42 l3 35 -197 3 c-108 1 -199 -1 -201 -5z"/>
<path d="M3166 1908 c-3 -7 -7 -28 -10 -45 l-5 -33 100 0 c82 0 101 -3 106
-16 3 -9 -1 -71 -9 -137 -9 -67 -12 -126 -8 -130 4 -4 45 -7 91 -5 l84 3 6 40
c4 22 6 41 5 41 0 1 -19 4 -42 6 -23 3 -45 8 -51 11 -6 4 -5 46 3 114 7 59 13
120 14 136 l0 27 -140 0 c-104 0 -142 -3 -144 -12z"/>
<path d="M1720 1792 c-5 -2 -10 -21 -10 -43 l0 -39 388 0 c213 0 392 4 398 8
17 11 26 72 11 73 -54 2 -779 3 -787 1z"/>
<path d="M2647 1783 c-4 -3 -7 -21 -7 -40 l0 -33 188 0 c103 0 192 4 198 8 6
4 15 22 19 40 l7 32 -200 0 c-109 0 -202 -3 -205 -7z"/>
<path d="M3147 1783 c-4 -3 -7 -21 -7 -40 l0 -33 55 0 c65 0 62 10 40 -150 -8
-58 -15 -111 -15 -117 0 -10 34 -13 139 -13 150 0 151 0 151 56 0 24 -1 24
-105 24 l-105 0 0 28 c0 28 16 176 25 225 l5 27 -89 0 c-48 0 -91 -3 -94 -7z"/>
<path d="M1896 1658 c-13 -65 -83 -604 -79 -610 2 -5 92 -8 199 -8 147 0 196
3 199 13 5 13 85 595 85 615 0 9 -47 12 -200 12 -199 0 -200 0 -204 -22z"/>
<path d="M2630 1678 c0 -2 -20 -142 -44 -313 -24 -170 -41 -313 -37 -318 4 -4
95 -6 202 -5 l194 3 42 295 c23 162 42 305 42 318 l1 22 -200 0 c-110 0 -200
-1 -200 -2z"/>
<path d="M3135 1670 c-9 -14 -92 -619 -86 -625 2 -3 91 -5 197 -5 163 0 194 2
202 15 7 14 13 14 48 1 90 -31 262 -28 385 8 152 45 272 163 305 299 l6 27
-240 0 -239 0 -6 -34 c-15 -95 -71 -144 -147 -132 -51 8 -70 37 -70 107 l0 59
-142 0 c-79 0 -148 4 -155 8 -8 5 -7 38 4 130 8 68 12 130 9 138 -6 16 -62 19
-71 4z"/>
<path d="M3746 1632 c-2 -4 -6 -25 -7 -47 l-4 -40 223 -3 c142 -1 230 1 242 8
24 13 28 75 5 83 -21 9 -454 7 -459 -1z"/>
<path d="M4335 1633 c-28 -7 -45 -32 -45 -65 l0 -28 571 0 c374 0 577 4 590
10 23 13 27 75 4 84 -8 3 -111 5 -229 5 l-215 0 -13 -27 c-13 -27 -14 -27
-113 -27 -97 0 -99 0 -105 25 l-6 25 -209 2 c-116 0 -219 -1 -230 -4z"/>
<path d="M5566 1632 c-3 -5 -8 -28 -12 -50 l-7 -42 201 0 200 0 11 44 c6 25
11 47 11 50 0 10 -398 7 -404 -2z"/>
<path d="M3732 1498 c-7 -7 -12 -25 -12 -40 l0 -28 235 0 235 0 10 26 c22 56
29 54 -223 54 -168 0 -236 -3 -245 -12z"/>
<path d="M4280 1491 c-5 -11 -10 -29 -10 -40 0 -21 0 -21 585 -21 l585 0 10
26 c22 58 61 54 -575 54 -567 0 -585 -1 -595 -19z"/>
<path d="M5546 1498 c-3 -7 -7 -25 -10 -40 l-6 -28 199 0 c110 0 202 3 204 8
3 4 7 21 8 37 l4 30 -198 3 c-153 2 -198 0 -201 -10z"/>
<path d="M4260 1382 c0 -5 5 -35 11 -68 31 -173 168 -256 459 -280 94 -7 271
8 364 32 125 32 238 109 298 203 15 25 28 49 28 53 0 4 -105 8 -233 8 l-233 0
-13 -36 c-18 -50 -64 -76 -121 -71 -61 7 -80 32 -80 108 l0 59 -240 0 c-132 0
-240 -4 -240 -8z"/>
<path d="M5525 1378 c-3 -12 -45 -316 -45 -331 0 -4 90 -7 200 -7 199 0 200 0
204 23 3 12 12 76 21 142 9 66 18 135 22 153 l5 32 -201 0 c-153 0 -203 -3
-206 -12z"/>
</g>
</svg>
